<?xml version="1.0" encoding="utf-8"?>
<?xml-stylesheet type="text/xsl" href="rss1.xsl"?>
<rss version="2.0" xmlns:atom="http://www.w3.org/2005/Atom" xmlns:content="http://purl.org/rss/1.0/modules/content/" xmlns:dc="http://purl.org/dc/elements/1.1/" xmlns:media="http://search.yahoo.com/mrss/">
<channel>
 <title>Getty</title>
 <link>http://www.gettyimg.com/</link>
 <atom:link href="http://www.gettyimg.com/" rel="self" type="application/rss+xml" />

 
                <item>
                <title><![CDATA[【Albums (lossless)】WAV - Taylor Swift - 1989 (CD WAV 16bits / 44,1kHz)]]></title>
                <link><![CDATA[https://sharemania.us/threads/taylor-swift-1989-cd-wav-16bits-44-1khz.221503/]]></link>
                <description><![CDATA[<article>
<blockquote class="messageText SelectQuoteContainer ugc baseHtml">
<a href="https://drive.google.com/drive/folders/15XrN4eYiU6PAlZaHUnj7EtbyF-Q_ugWD?usp=drive_link" target="_blank" class="externalLink" rel="nofollow">https://drive.google.com/drive/folders/15XrN4eYiU6PAlZaHUnj7EtbyF-Q_ugWD?usp=drive_link</a>
<div class="messageTextEndMarker">&nbsp;</div>
</blockquote>
</article>]]></description>
                <author><![CDATA[samko]]></author>
                </item>

                
                <item>
                <title><![CDATA[【Albums (lossless)】WAV - Taylor Swift - Midnights (CD WAV 16bits / 44,1kHz)]]></title>
                <link><![CDATA[https://sharemania.us/threads/taylor-swift-midnights-cd-wav-16bits-44-1khz.221505/]]></link>
                <description><![CDATA[<article>
<blockquote class="messageText SelectQuoteContainer ugc baseHtml">
<a href="https://drive.google.com/drive/folders/1DPupPp6wbkuw0_L1gIO-iVZ3HHUSsZYX?usp=drive_link" target="_blank" class="externalLink" rel="nofollow">https://drive.google.com/drive/folders/1DPupPp6wbkuw0_L1gIO-iVZ3HHUSsZYX?usp=drive_link</a>
<div class="messageTextEndMarker">&nbsp;</div>
</blockquote>
</article>]]></description>
                <author><![CDATA[samko]]></author>
                </item>

                
                <item>
                <title><![CDATA[【Albums (lossless)】ALAC - Juice WRLD - Goodbye &amp; Good Riddance (5 Year Anniversary Edition) [Apple LAC | 24bit/48kHz | 1 583 kb/s | Apple Digital Master]]]></title>
                <link><![CDATA[https://sharemania.us/threads/juice-wrld-goodbye-good-riddance-5-year-anniversary-edition-apple-lac-24bit-48khz-1-583-kb-s-apple-digital-master.221517/]]></link>
                <description><![CDATA[<article>
<blockquote class="messageText SelectQuoteContainer ugc baseHtml">
<img src="https://a5.mzstatic.com/us/r1000/0/Music116/v4/65/58/be/6558be8f-a2e6-c28f-2d50-429b1ac40939/23UMGIM49820.rgb.jpg" class="bbCodeImage LbImage" alt="[​IMG]" data-url="https://a5.mzstatic.com/us/r1000/0/Music116/v4/65/58/be/6558be8f-a2e6-c28f-2d50-429b1ac40939/23UMGIM49820.rgb.jpg" style=""> <br>
<br>
<b>Album: Goodbye &amp; Good Riddance (5 Year Anniversary Edition)<br>
Artist: Juice WRLD <br>
Genre: Hip-Hop/Rap<br>
Release date: 18/05/2023<br>
Format: <b><b>.m4a ALAC (Apple Lossless Audio Codec, with Apple Digital Master loudness) | 24bit@48kHz</b></b></b><br>
<br>
<div class="bbCodeBlock bbCodeVfcHH HiddenContent">
<div class="attribution type">Hidden Content:</div>
<blockquote>You must reply before you can see the hidden data contained here.</blockquote>
</div>
<div class="messageTextEndMarker">&nbsp;</div>
</blockquote>
</article>]]></description>
                <author><![CDATA[SonMaxime]]></author>
                </item>

                
                <item>
                <title><![CDATA[【Requests】[REQ AUD] - 1 Discography 3 Singles (Qobuz flac)]]></title>
                <link><![CDATA[https://sharemania.us/threads/1-discography-3-singles-qobuz-flac.221523/]]></link>
                <description><![CDATA[<article>
<blockquote class="messageText SelectQuoteContainer ugc baseHtml">
Hi there...<br>
Could anyone please share these...<br>
1 - <a href="https://www.qobuz.com/nl-nl/interpreter/azari/741711" target="_blank" class="externalLink" rel="nofollow">https://www.qobuz.com/nl-nl/interpreter/azari/741711</a><br>
2 - <a href="https://www.qobuz.com/nl-nl/album/with-you-ngau-hung-nick-strand/gd4vikxq7zl0b" target="_blank" class="externalLink" rel="nofollow">https://www.qobuz.com/nl-nl/album/with-you-ngau-hung-nick-strand/gd4vikxq7zl0b</a><br>
3 - <a href="https://www.qobuz.com/nl-nl/album/tose-naina-lage-single-shilpa-rao/eduijgfxnjtcb" target="_blank" class="externalLink" rel="nofollow">https://www.qobuz.com/nl-nl/album/tose-naina-lage-single-shilpa-rao/eduijgfxnjtcb</a><br>
4 - <a href="https://www.qobuz.com/nl-nl/album/my-jolly-sailor-bold-ashley-serena/nvwxw426kqjxa" target="_blank" class="externalLink" rel="nofollow">https://www.qobuz.com/nl-nl/album/my-jolly-sailor-bold-ashley-serena/nvwxw426kqjxa</a><br>
Please share these if possible...<br>
Thanks...
<div class="messageTextEndMarker">&nbsp;</div>
</blockquote>
</article>]]></description>
                <author><![CDATA[XSide18]]></author>
                </item>

                
                <item>
                <title><![CDATA[【UPSCALED】Alan Walker &amp; Ava Max - Alone, Pt. II (Live at Château de Fontainebleau) [4K AI Upscale HEVC 10-bit / PCM 24-bit]]]></title>
                <link><![CDATA[https://sharemania.us/threads/alan-walker-ava-max-alone-pt-ii-live-at-ch%C3%A2teau-de-fontainebleau-4k-ai-upscale-hevc-10-bit-pcm-24-bit.221515/]]></link>
                <description><![CDATA[<article>
<blockquote class="messageText SelectQuoteContainer ugc baseHtml">
<img src="https://images2.imgbox.com/25/c3/FvXfQL8B_o.jpg" class="bbCodeImage LbImage" alt="[​IMG]" data-url="https://images2.imgbox.com/25/c3/FvXfQL8B_o.jpg" style=""> <br>
<br>
<b>Genre: <span style="color: rgb(0, 89, 179)">Electronic, Pop</span><br>
Style: <span style="color: rgb(0, 89, 179)">Dance-pop, Electro House, Techno</span><br>
Year: <span style="color: rgb(0, 89, 179)">2019</span><br>
Video Source: <span style="color: rgb(0, 89, 179)">Vimeo Web Master 1080p</span><br>
Audio Source: <span style="color: rgb(0, 89, 179)">Qobuz Hi-Res 24-bit</span></b><br>
<br>
"<b>Alone, Pt. II</b>" is a song by British-Norwegian record producer and DJ Alan Walker and American singer Ava Max, released by Sony Music on 27 December 2019. It is a sequel to Walker's single "Alone" (2016). Many remixes of the song were published, among which those by Rave Republic, Toby Romeo, RetroVision, Da Tweekaz, and one by Alex Skrindo, in collaboration with Sebastian Wibe. Much like the original, "Alone, Pt. II" also garnered critical acclaim. Jason Lipshutz of <i>Billboard</i> praised the song, stating that it "demonstrates the evolution of Walker’s production techniques". He also described Max's vocals as "a moment designed for glass-clinking, unified swaying and other forms of party camaraderie".<br>
<br>
<a href="https://sharemania.us/threads/alan-walker-ava-max-alone-pt-ii-4k-ai-upscale-hevc-10-bit-pcm-24-bit.221514/" class="internalLink">The official music video of the song</a> was uploaded on Walker's YouTube channel on 27 December 2019. The Kristian Berg directed video was filmed in the Vietnamese province of Quảng Bình between 2 and 10 April 2019, in locations such as the Sơn Đoòng cave, Tróoc river, Chay river, Tra Ang bridge, Doong village, En cave and Nuoc Nut cave. A second video, also directed by Kristian Berg, was released on 17 February 2020, and was filmed live at the Château de Fontainebleau castle in France (the music video of this release).<br>
<br>
<b>Release Info</b><br>
The video track is upscaled to 4K with Topaz Video AI and encoded to HEVC 10-bit.<br>
The PCM track is lossless (Qobuz, HiRes 24-bit), synced with Adobe Audition.<br>
The timed lyrics are synced and edited to match the music video.<br>
Enable the subtitles to see the lyrics.<br>
<br>
<div class="ToggleTriggerAnchor bbCodeSpoilerContainer">
<button type="button" class="button bbCodeSpoilerButton ToggleTrigger Tooltip JsOnly" data-target="> .SpoilerTarget"><span>Spoiler: <span class="SpoilerTitle">Media Info</span></span></button>
<div class="SpoilerTarget bbCodeSpoilerText">
<div class="bbCodeBlock bbCodeCode">
<div class="type">Code:</div>
<pre>General
Unique ID                      : 266470659091382780730690713894648360164 (0xC87861D587DB0581AB209909C4992CE4)
Complete name                  : Alan Walker &amp; Ava Max - Alone, Pt. II (Live at Château de Fontainebleau).mkv
Format                         : Matroska
Format version                 : Version 4
File size                      : 781 MiB
Duration                       : 6 min 11 s
Overall bit rate               : 17.6 Mb/s
Encoded date                   : UTC 2023-05-26 23:47:48
Writing application            : mkvmerge v76.0 ('Celebration') 64-bit
Writing library                : libebml v1.4.4 + libmatroska v1.7.1

Video
ID                             : 1
Format                         : HEVC
Format/Info                    : High Efficiency Video Coding
Format profile                 : Main 10@L5@Main
Codec ID                       : V_MPEGH/ISO/HEVC
Duration                       : 6 min 11 s
Bit rate                       : 15.2 Mb/s
Width                          : 3 840 pixels
Height                         : 2 160 pixels
Display aspect ratio           : 16:9
Frame rate mode                : Constant
Frame rate                     : 25.000 FPS
Color space                    : YUV
Chroma subsampling             : 4:2:0
Bit depth                      : 10 bits
Bits/(Pixel*Frame)             : 0.073
Stream size                    : 673 MiB (86%)
Language                       : English
Default                        : Yes
Forced                         : No
Color range                    : Limited
Color primaries                : BT.709
Transfer characteristics       : BT.709
Matrix coefficients            : BT.709

Audio #1
ID                             : 2
Format                         : PCM
Format settings                : Little / Signed
Codec ID                       : A_PCM/INT/LIT
Duration                       : 6 min 11 s
Bit rate mode                  : Constant
Bit rate                       : 2 117 kb/s
Channel(s)                     : 2 channels
Sampling rate                  : 44.1 kHz
Frame rate                     : 25.000 FPS (1764 SPF)
Bit depth                      : 24 bits
Stream size                    : 93.9 MiB (12%)
Title                          : Lossless 24-bit
Language                       : English
Default                        : Yes
Forced                         : No

Audio #2
ID                             : 3
Format                         : AAC LC
Format/Info                    : Advanced Audio Codec Low Complexity
Codec ID                       : A_AAC-2
Duration                       : 6 min 11 s
Bit rate                       : 317 kb/s
Channel(s)                     : 2 channels
Channel layout                 : L R
Sampling rate                  : 48.0 kHz
Frame rate                     : 46.875 FPS (1024 SPF)
Compression mode               : Lossy
Stream size                    : 14.1 MiB (2%)
Language                       : English
Default                        : No
Forced                         : No

Text
ID                             : 4
Format                         : UTF-8
Codec ID                       : S_TEXT/UTF8
Codec ID/Info                  : UTF-8 Plain Text
Duration                       : 3 min 15 s
Bit rate                       : 70 b/s
Frame rate                     : 0.097 FPS
Count of elements              : 19
Stream size                    : 1.69 KiB (0%)
Title                          : Lyrics
Language                       : English
Default                        : No
Forced                         : No
</pre>
</div></div>
</div><br>
<div class="bbCodeBlock bbCodeVfcHH HiddenContent">
<div class="attribution type">Hidden Content:</div>
<blockquote>You must reply before you can see the hidden data contained here.</blockquote>
</div>
<div class="messageTextEndMarker">&nbsp;</div>
</blockquote>
</article>]]></description>
                <author><![CDATA[ADHDerby]]></author>
                </item>

                
                <item>
                <title><![CDATA[【Requests】[REQ VID] - BBC Big Weekend 2023 (Jonas Brothers, Mimi Webb, Becky Hill, Zara Larsson)]]></title>
                <link><![CDATA[https://sharemania.us/threads/bbc-big-weekend-2023-jonas-brothers-mimi-webb-becky-hill-zara-larsson.221526/]]></link>
                <description><![CDATA[<article>
<blockquote class="messageText SelectQuoteContainer ugc baseHtml">
BBC Big Weekend 2023 (Jonas Brothers, Mimi Webb, Becky Hill, Zara Larsson)
<div class="messageTextEndMarker">&nbsp;</div>
</blockquote>
</article>]]></description>
                <author><![CDATA[rdiouser]]></author>
                </item>

                
                <item>
                <title><![CDATA[【Requests】[REQ AUD] - Taylor Swift - Midnights (The Til Dawn Edition) [Clean Version]]]></title>
                <link><![CDATA[https://sharemania.us/threads/taylor-swift-midnights-the-til-dawn-edition-clean-version.221518/]]></link>
                <description><![CDATA[<article>
<blockquote class="messageText SelectQuoteContainer ugc baseHtml">
Hi! Can someone give me the link of Midnights (The Til Dawn Edition) [Clean Version] in M4A iTunes format? Thank you! ✨
<div class="messageTextEndMarker">&nbsp;</div>
</blockquote>
</article>]]></description>
                <author><![CDATA[jvhanash]]></author>
                </item>

                
                <item>
                <title><![CDATA[【HD Live Performances】FEED - Tribute to Berry Gordy &amp; Smokey Robinson - Grammy Awards S01E65 2023 - Main Show 1080i HDTV Backhaul DTS-HD MA 5.1 H.264-ALANiS]]></title>
                <link><![CDATA[https://sharemania.us/threads/tribute-to-berry-gordy-smokey-robinson-grammy-awards-s01e65-2023-main-show-1080i-hdtv-backhaul-dts-hd-ma-5-1-h-264-alanis.221510/]]></link>
                <description><![CDATA[<article>
<blockquote class="messageText SelectQuoteContainer ugc baseHtml">
<img src="https://images2.imgbox.com/b8/d4/57rhWoEJ_o.jpg" class="bbCodeImage LbImage" alt="[​IMG]" data-url="https://images2.imgbox.com/b8/d4/57rhWoEJ_o.jpg" style=""> <br>
<br>
<div class="bbCodeBlock bbCodeCode">
<div class="type">Code:</div>
<pre>General
Unique ID                      : 223991494846841350279580296461045013535 (0xA88331562FDE91EA0819697A6EBD1C1F)
Format                         : Matroska
Format version                 : Version 4
File size                      : 2.08 GiB
Duration                       : 10 min 8 s
Overall bit rate mode          : Variable
Overall bit rate               : 29.4 Mb/s
Encoded date                   : UTC 2023-05-26 21:44:32
Writing application            : mkvmerge v30.0.0 ('Interstellar') 64-bit
Writing library                : libebml v1.3.6 + libmatroska v1.4.9

Video
ID                             : 1
Format                         : AVC
Format/Info                    : Advanced Video Codec
Format profile                 : High@L4.1
Format settings                : CABAC / 4 Ref Frames
Format settings, CABAC         : Yes
Format settings, Reference fra : 4 frames
Format settings, GOP           : M=4, N=32
Codec ID                       : V_MPEG4/ISO/AVC
Duration                       : 10 min 8 s
Bit rate                       : 25.3 Mb/s
Width                          : 1 920 pixels
Height                         : 1 080 pixels
Display aspect ratio           : 16:9
Frame rate mode                : Variable
Frame rate                     : 59.940 (60000/1001) FPS
Original frame rate            : 29.970 (30000/1001) FPS
Color space                    : YUV
Chroma subsampling             : 4:2:0
Bit depth                      : 8 bits
Scan type                      : Interlaced
Scan type, store method        : Separated fields
Scan order                     : Top Field First
Bits/(Pixel*Frame)             : 0.204
Stream size                    : 1.79 GiB (86%)
Default                        : Yes
Forced                         : No
Color range                    : Limited
Color primaries                : BT.709
Transfer characteristics       : BT.709
Matrix coefficients            : BT.709

Audio
ID                             : 2
Format                         : DTS XLL
Format/Info                    : Digital Theater Systems
Commercial name                : DTS-HD Master Audio
Codec ID                       : A_DTS
Duration                       : 10 min 8 s
Bit rate mode                  : Variable
Bit rate                       : 4 088 kb/s
Channel(s)                     : 6 channels
Channel layout                 : C L R Ls Rs LFE
Sampling rate                  : 48.0 kHz
Frame rate                     : 93.750 FPS (512 SPF)
Bit depth                      : 24 bits
Compression mode               : Lossless
Delay relative to video        : 101 ms
Stream size                    : 297 MiB (14%)
Language                       : English
Default                        : Yes
Forced                         : No

</pre>
</div>
<div class="bbCodeBlock bbCodeVfcHH HiddenContent">
<div class="attribution type">Hidden Content:</div>
<blockquote>You must either reply or click 'Like' to see the hidden information contained here.</blockquote>
</div><br>
<br>
<span style="color: rgb(191, 191, 191)">Cutted with:</span><br>
<b>MKVToolNix GUI<br>
<br>
<img src="styles/default/xenforo/smilies/super_man-48.png" class="mceSmilie" alt=":super:" title="Super Man    :super:"><img src="styles/default/xenforo/smilies/super_man-48.png" class="mceSmilie" alt=":super:" title="Super Man    :super:"><img src="styles/default/xenforo/smilies/super_man-48.png" class="mceSmilie" alt=":super:" title="Super Man    :super:"></b>
<div class="messageTextEndMarker">&nbsp;</div>
</blockquote>
</article>]]></description>
                <author><![CDATA[Dream66]]></author>
                </item>

                
                <item>
                <title><![CDATA[【Requests】[REQ CAP] - Tina Turner - Live in Rio '88 (2018) HDTV - Globoplay]]></title>
                <link><![CDATA[https://sharemania.us/threads/tina-turner-live-in-rio-88-2018-hdtv-globoplay.221508/]]></link>
                <description><![CDATA[<article>
<blockquote class="messageText SelectQuoteContainer ugc baseHtml">
Could someone rip Tina's full show in Brazil in 88, available on Globoplay? Thanks.
<div class="messageTextEndMarker">&nbsp;</div>
</blockquote>
</article>]]></description>
                <author><![CDATA[mvlmoraes]]></author>
                </item>

                
                <item>
                <title><![CDATA[【Requests】[REQ AUD] - Greatest Hits various Artist]]></title>
                <link><![CDATA[https://sharemania.us/threads/greatest-hits-various-artist.221525/]]></link>
                <description><![CDATA[<article>
<blockquote class="messageText SelectQuoteContainer ugc baseHtml">
Hello my dear Music Friends,<br>
<br>
I was wondering if you have these ''Hits'' albums in your collections?<br>
<br>
<a href="https://www.qobuz.com/gb-en/album/greatest-hits-simon-garfunkel/dat49j2vgunqb" target="_blank" class="externalLink" rel="nofollow">https://www.qobuz.com/gb-en/album/greatest-hits-simon-garfunkel/dat49j2vgunqb</a><br>
<br>
<a href="https://www.qobuz.com/ie-en/album/the-ultimate-collection-bill-withers/qzk7gowk1ligb" target="_blank" class="externalLink" rel="nofollow">https://www.qobuz.com/ie-en/album/the-ultimate-collection-bill-withers/qzk7gowk1ligb</a><br>
<br>
<a href="https://www.qobuz.com/us-en/album/all-over-the-world-the-very-best-of-elo-electric-light-orchestra/0827969448922" target="_blank" class="externalLink" rel="nofollow">https://www.qobuz.com/us-en/album/a...of-elo-electric-light-orchestra/0827969448922</a><br>
<br>
Thanks a million !
<div class="messageTextEndMarker">&nbsp;</div>
</blockquote>
</article>]]></description>
                <author><![CDATA[Jim King]]></author>
                </item>

                
                <item>
                <title><![CDATA[【Albums (lossless)】WAV - Aless - Ženatomá (CD WAV 16bits, 44,1kHz)]]></title>
                <link><![CDATA[https://sharemania.us/threads/aless-%C5%BDenatom%C3%A1-cd-wav-16bits-44-1khz.221506/]]></link>
                <description><![CDATA[<article>
<blockquote class="messageText SelectQuoteContainer ugc baseHtml">
<a href="https://drive.google.com/drive/folders/12hTbhIRSp-AmK9Xrgj33ywJdID2NNzbF?usp=drive_link" target="_blank" class="externalLink" rel="nofollow">https://drive.google.com/drive/folders/12hTbhIRSp-AmK9Xrgj33ywJdID2NNzbF?usp=drive_link</a>
<div class="messageTextEndMarker">&nbsp;</div>
</blockquote>
</article>]]></description>
                <author><![CDATA[samko]]></author>
                </item>

                
                <item>
                <title><![CDATA[【Helpdesk】[TUTORIAL] How to decode 360RA into 7.1.4 WAV (LC@L3 only)]]></title>
                <link><![CDATA[https://sharemania.us/threads/tutorial-how-to-decode-360ra-into-7-1-4-wav-lc-l3-only.221516/]]></link>
                <description><![CDATA[<article>
<blockquote class="messageText SelectQuoteContainer ugc baseHtml">
Hi eveyone ! Since theres now a lot of 360RA rips available on the forum, I think it's a good idea to show you how to decode them into wav files since the player I've posted does not work with the <b>LC@L3</b> rips.<br>
<br>
Here's the requirements :<br>
<ul>
<li><b>libmpegh</b> : <a href="https://github.com/ittiam-systems/libmpegh/releases/tag/latest" target="_blank" class="externalLink" rel="nofollow">https://github.com/ittiam-systems/libmpegh/releases/tag/latest</a></li>
<li>The missing <b>System32/SysWOW64 .dll files</b>: <a href="https://github.com/vicboma1/loaderDumpsArcade-solved-problem-vcruntime100" target="_blank" class="externalLink" rel="nofollow">https://github.com/vicboma1/loaderDumpsArcade-solved-problem-vcruntime100</a></li>
</ul>1. Download the <a href="https://github.com/ittiam-systems/libmpegh/releases/download/latest/ia_mpeghd_testbench.exe" target="_blank" class="externalLink" rel="nofollow">ia_mpeghd_testbench.exe</a> file from the release link<br>
2. In order to set the decoder as a native Windows command, put it into your PATH Variables, here's a detailled tutorial to do it : <a href="https://www.computerhope.com/issues/ch000549.htm" target="_blank" class="externalLink" rel="nofollow">https://www.computerhope.com/issues/ch000549.htm</a> (It's not necessary but it's more convenient)<br>
3. If you don't have the Visual Studio .dll files in your System32/SysWOW64 folders, it may happens that the program will show you some errors and then completely stop, here's a homemade quick tutorial : <div data-s9e-mediaembed="youtube" style="display:inline-block;width:100%;max-width:640px"><div style="overflow:hidden;position:relative;padding-bottom:56.25%"><iframe allowfullscreen="" scrolling="no" style="background:url(https://i.ytimg.com/vi/vbwQ9szxJX0/hqdefault.jpg) 50% 50% / cover;border:0;height:100%;left:0;position:absolute;width:100%" src="https://www.youtube.com/embed/vbwQ9szxJX0"></iframe></div></div><br>
<br>
Now that these steps are completed, you can now run the decoder proprely.<br>
The basic command for decoding to the original speaker setup configuration is:<br>
(MAKE SURE THE REPLACE THE FILENAME !)<br>
<div class="bbCodeBlock bbCodeCode">
<div class="type">Code:</div>
<pre>ia_mpeghd_testbench -ifile:input.m4a -ofile:output.wav</pre>
</div>But you can also indicate to the decoder to downmix/upmix to a specific speaker setup it with:<br>
<div class="bbCodeBlock bbCodeCode">
<div class="type">Code:</div>
<pre>ia_mpeghd_testbench -ifile:input.m4a -ofile:output.wav -cicp:NUMBER</pre>
</div>Here's the list of numbers and it's specific speaker setup:<br>
<div class="bbCodeBlock bbCodeCode">
<div class="type">Code:</div>
<pre>1: - C
2: - L, R
3: - C, L, R
4: - C, L, R, Cs
5: - C, L, R, Ls, Rs
6: - C, L, R, Ls, Rs, LFE
7: - C, Lc, Rc, L, R, Ls, Rs, LFE
8: NA
9: - L, R, Cs
10: - L, R, Ls, Rs
11: - C, L, R, Ls, Rs, Cs, LFE
12: - C, L, R, Ls, Rs, Lsr, Rsr, LFE
13: - C, Lc, Rc, L, R, Lss, Rss, Lsr, Rsr, Cs, LFE, LFE2, Cv, Lv, Rv, Lvss, Rvss, Ts, Lvr, Rvr, Cvr, Cb, Lb, Rb
14: - C, L, R, Ls, Rs, LFE, Lv, Rv
15: - C, L, R, Lss, Rss, Ls, Rs, Lv, Rv, Cvr, LFE, LFE2
16: - C, L, R, Ls, Rs, LFE, Lv, Rv, Lvs, Rvs
17: - C, L, R, Ls, Rs, LFE, Lv, Rv, Cv, Lvs, Rvs, Ts
18: - C, L, R, Ls, Rs, Lbs, Rbs, LFE, Lv, Rv, Cv, Lvs, Rvs, Ts
19: - C, L, R, Lss, Rss, Lsr, Rsr, LFE, Lv, Rv, Lvr, Rvr
20: - C, Leos, Reos, L, R, Lss, Rss, Lsr, Rsr, LFE, Lv, Rv, Lvs, Rvs</pre>
</div>BONUS CMD COMMAND FOR DECODING A WHOLE FOLDER :<br>
<div class="bbCodeBlock bbCodeCode">
<div class="type">Code:</div>
<pre>for %f in (./*.m4a); do ia_mpeghd_testbench -ifile:"%f" -ofile:"%~dpnf.wav"</pre>
</div>
<div class="messageTextEndMarker">&nbsp;</div>
</blockquote>
</article>]]></description>
                <author><![CDATA[SonMaxime]]></author>
                </item>

                
                <item>
                <title><![CDATA[【Apple Music】WEB-RiP - Taylor Swift - Karma (feat. Ice Spice) (iTunes M4V) (1080p HD)]]></title>
                <link><![CDATA[https://sharemania.us/threads/taylor-swift-karma-feat-ice-spice-itunes-m4v-1080p-hd.221512/]]></link>
                <description><![CDATA[<article>
<blockquote class="messageText SelectQuoteContainer ugc baseHtml">
<div style="text-align: center"><img src="https://images2.imgbox.com/4b/cb/HUJJNjvd_o.jpg" class="bbCodeImage LbImage" alt="[​IMG]" data-url="https://images2.imgbox.com/4b/cb/HUJJNjvd_o.jpg" style=""> <br>
<br>
<b>Download Music Video:<br>
<div class="bbCodeBlock bbCodeVfcHH HiddenContent">
<div class="attribution type">Hidden Content:</div>
<blockquote>You must reply before you can see the hidden data contained here.</blockquote>
</div></b><br>
<br>
<b><i><b><b><b>If any link is down, please inform me by means of the replys; Thank you - Sebastian Swift</b></b></b><br>
<b><b><b>Please do not type random letters when making a reply</b></b></b><br>
<br>
You can place an order in this thread (<a href="https://sharemania.us/threads/all-my-threads.185511/" class="internalLink">All My Threads | ShareMania.US</a>), if I have it in<br>
my personal collection I can post it!</i></b><br>
<br>
<img src="https://images2.imgbox.com/02/65/2aRnsYwe_o.jpg" class="bbCodeImage LbImage" alt="[​IMG]" data-url="https://images2.imgbox.com/02/65/2aRnsYwe_o.jpg" style=""> ​</div>
<div class="messageTextEndMarker">&nbsp;</div>
</blockquote>
</article>]]></description>
                <author><![CDATA[sebastianswif13]]></author>
                </item>

                
                <item>
                <title><![CDATA[【Requests】[REQ AUD] - Taylor Swift - You're Losing Me (From the Vault) Lossless]]></title>
                <link><![CDATA[https://sharemania.us/threads/taylor-swift-youre-losing-me-from-the-vault-lossless.221507/]]></link>
                <description><![CDATA[<article>
<blockquote class="messageText SelectQuoteContainer ugc baseHtml">
Please share this song in FLAC or WAV
<div class="messageTextEndMarker">&nbsp;</div>
</blockquote>
</article>]]></description>
                <author><![CDATA[DanceDanceDance]]></author>
                </item>

                
                <item>
                <title><![CDATA[【HD Live Performances】FEED - 50 Years of Hip-Hop - Grammy Awards S01E65 2023 - Main Show 1080i HDTV Backhaul DTS-HD MA 5.1 H.264-ALANiS]]></title>
                <link><![CDATA[https://sharemania.us/threads/50-years-of-hip-hop-grammy-awards-s01e65-2023-main-show-1080i-hdtv-backhaul-dts-hd-ma-5-1-h-264-alanis.221511/]]></link>
                <description><![CDATA[<article>
<blockquote class="messageText SelectQuoteContainer ugc baseHtml">
<img src="https://images2.imgbox.com/99/d5/xvfLLESW_o.jpg" class="bbCodeImage LbImage" alt="[​IMG]" data-url="https://images2.imgbox.com/99/d5/xvfLLESW_o.jpg" style=""> <br>
<br>
<div class="bbCodeBlock bbCodeCode">
<div class="type">Code:</div>
<pre>General
Unique ID                      : 87568399886017680336918415422708960812 (0x41E10F733ED49569C3AF8AA5700ECE2C)
Format                         : Matroska
Format version                 : Version 4
File size                      : 2.98 GiB
Duration                       : 14 min 33 s
Overall bit rate mode          : Variable
Overall bit rate               : 29.3 Mb/s
Encoded date                   : UTC 2023-05-26 21:50:01
Writing application            : mkvmerge v30.0.0 ('Interstellar') 64-bit
Writing library                : libebml v1.3.6 + libmatroska v1.4.9

Video
ID                             : 1
Format                         : AVC
Format/Info                    : Advanced Video Codec
Format profile                 : High@L4.1
Format settings                : CABAC / 4 Ref Frames
Format settings, CABAC         : Yes
Format settings, Reference fra : 4 frames
Format settings, GOP           : M=4, N=32
Codec ID                       : V_MPEG4/ISO/AVC
Duration                       : 14 min 33 s
Bit rate                       : 25.3 Mb/s
Width                          : 1 920 pixels
Height                         : 1 080 pixels
Display aspect ratio           : 16:9
Frame rate mode                : Variable
Frame rate                     : 59.940 (60000/1001) FPS
Original frame rate            : 29.970 (30000/1001) FPS
Color space                    : YUV
Chroma subsampling             : 4:2:0
Bit depth                      : 8 bits
Scan type                      : Interlaced
Scan type, store method        : Separated fields
Scan order                     : Top Field First
Bits/(Pixel*Frame)             : 0.204
Stream size                    : 2.57 GiB (86%)
Default                        : Yes
Forced                         : No
Color range                    : Limited
Color primaries                : BT.709
Transfer characteristics       : BT.709
Matrix coefficients            : BT.709

Audio
ID                             : 2
Format                         : DTS XLL
Format/Info                    : Digital Theater Systems
Commercial name                : DTS-HD Master Audio
Codec ID                       : A_DTS
Duration                       : 14 min 33 s
Bit rate mode                  : Variable
Bit rate                       : 3 960 kb/s
Channel(s)                     : 6 channels
Channel layout                 : C L R Ls Rs LFE
Sampling rate                  : 48.0 kHz
Frame rate                     : 93.750 FPS (512 SPF)
Bit depth                      : 24 bits
Compression mode               : Lossless
Delay relative to video        : 109 ms
Stream size                    : 412 MiB (14%)
Language                       : English
Default                        : Yes
Forced                         : No

</pre>
</div>
<div class="bbCodeBlock bbCodeVfcHH HiddenContent">
<div class="attribution type">Hidden Content:</div>
<blockquote>You must either reply or click 'Like' to see the hidden information contained here.</blockquote>
</div><br>
<br>
<span style="color: rgb(191, 191, 191)">Cutted with:</span><br>
<b>MKVToolNix GUI<br>
<br>
<img src="styles/default/xenforo/smilies/super_man-48.png" class="mceSmilie" alt=":super:" title="Super Man    :super:"><img src="styles/default/xenforo/smilies/super_man-48.png" class="mceSmilie" alt=":super:" title="Super Man    :super:"><img src="styles/default/xenforo/smilies/super_man-48.png" class="mceSmilie" alt=":super:" title="Super Man    :super:"></b>
<div class="messageTextEndMarker">&nbsp;</div>
</blockquote>
</article>]]></description>
                <author><![CDATA[Dream66]]></author>
                </item>

                
                <item>
                <title><![CDATA[【Albums (lossless)】WAV - Taylor Swift - reputation (CD WAV 16bits / 44,1kHz)]]></title>
                <link><![CDATA[https://sharemania.us/threads/taylor-swift-reputation-cd-wav-16bits-44-1khz.221504/]]></link>
                <description><![CDATA[<article>
<blockquote class="messageText SelectQuoteContainer ugc baseHtml">
<a href="https://drive.google.com/drive/folders/1yA-HjKvSCb-S6kbQsgtjKnsLdsCf1wMY?usp=drive_link" target="_blank" class="externalLink" rel="nofollow">https://drive.google.com/drive/folders/1yA-HjKvSCb-S6kbQsgtjKnsLdsCf1wMY?usp=drive_link</a>
<div class="messageTextEndMarker">&nbsp;</div>
</blockquote>
</article>]]></description>
                <author><![CDATA[samko]]></author>
                </item>

                
                <item>
                <title><![CDATA[【HD Live Performances】REQUEST - NIGHT CLUB BAND LIVESTREAM REGGIES CHICAGO]]></title>
                <link><![CDATA[https://sharemania.us/threads/request-night-club-band-livestream-reggies-chicago.221521/]]></link>
                <description><![CDATA[<article>
<blockquote class="messageText SelectQuoteContainer ugc baseHtml">
would any one by chance have been able to capture the band NIGHT CLUB (Mark Brooks &amp; Emily Kavanaugh) when they did the live stream from Reggies in Chicago on Friday May 26th, 2023? thank you in advance!
<div class="messageTextEndMarker">&nbsp;</div>
</blockquote>
</article>]]></description>
                <author><![CDATA[bearkissjim]]></author>
                </item>

                
                <item>
                <title><![CDATA[【UPSCALED】Alan Walker &amp; Ava Max - Alone Pt. II [4K AI Upscale HEVC 10-bit / PCM 24-bit]]]></title>
                <link><![CDATA[https://sharemania.us/threads/alan-walker-ava-max-alone-pt-ii-4k-ai-upscale-hevc-10-bit-pcm-24-bit.221514/]]></link>
                <description><![CDATA[<article>
<blockquote class="messageText SelectQuoteContainer ugc baseHtml">
<b><img src="https://images2.imgbox.com/7d/98/xgTwRMtX_o.jpg" class="bbCodeImage LbImage" alt="[​IMG]" data-url="https://images2.imgbox.com/7d/98/xgTwRMtX_o.jpg" style=""> <br>
<br>
Genre: <span style="color: #0059b3">Electronic, Pop</span> <br>
Style: <span style="color: #0059b3">Dance-pop, Electro House, Techno</span> <br>
Year: <span style="color: #0059b3">2019</span> <br>
Video Source: <span style="color: #0059b3">Vimeo Web Master 1080p</span><br>
Audio Source: <span style="color: #0059b3">Qobuz Hi-Res 24-bit</span></b><br>
<br>
"<b>Alone, Pt. II</b>" is a song by British-Norwegian record producer and DJ Alan Walker and American singer Ava Max, released by Sony Music on 27 December 2019. It is a sequel to Walker's single "Alone" (2016). Many remixes of the song were published, among which those by Rave Republic, Toby Romeo, RetroVision, Da Tweekaz, and one by Alex Skrindo, in collaboration with Sebastian Wibe. Much like the original, "Alone, Pt. II" also garnered critical acclaim. Jason Lipshutz of <i>Billboard</i> praised the song, stating that it "demonstrates the evolution of Walker’s production techniques". He also described Max's vocals as "a moment designed for glass-clinking, unified swaying and other forms of party camaraderie".<br>
<br>
The official music video of the song was uploaded on Walker's YouTube channel on 27 December 2019. The Kristian Berg directed video was filmed in the Vietnamese province of Quảng Bình between 2 and 10 April 2019, in locations such as the Sơn Đoòng cave, Tróoc river, Chay river, Tra Ang bridge, Doong village, En cave and Nuoc Nut cave. <a href="https://sharemania.us/threads/alan-walker-ava-max-alone-pt-ii-live-at-ch%C3%A2teau-de-fontainebleau-4k-ai-upscale-hevc-10-bit-pcm-24-bit.221515/" class="internalLink">A second video, also directed by Kristian Berg</a>, was released on 17 February 2020, and was filmed live at the Château de Fontainebleau castle in France. As of May 2023, the video has amassed over 317 million views and 5 million likes.<br>
<br>
<b>Release Info</b><br>
The video track is upscaled to 4K with Topaz Video AI and encoded to HEVC 10-bit.<br>
The PCM track is lossless (Qobuz, HiRes 24-bit), synced with Adobe Audition.<br>
The timed lyrics are synced and edited to match the music video.<br>
Enable the subtitles to see the lyrics.<br>
<br>
<div class="ToggleTriggerAnchor bbCodeSpoilerContainer">
<button type="button" class="button bbCodeSpoilerButton ToggleTrigger Tooltip JsOnly" data-target="> .SpoilerTarget"><span>Spoiler: <span class="SpoilerTitle">Media Info</span></span></button>
<div class="SpoilerTarget bbCodeSpoilerText">
<div class="bbCodeBlock bbCodeCode">
<div class="type">Code:</div>
<pre>General
Unique ID                      : 307879518424041938860174975297894452636 (0xE79F7039A5E22E434FEE1415CEA78D9C)
Complete name                  : Alan Walker &amp; Ava Max - Alone Pt. II.mkv
Format                         : Matroska
Format version                 : Version 4
File size                      : 523 MiB
Duration                       : 3 min 59 s
Overall bit rate               : 18.3 Mb/s
Encoded date                   : UTC 2023-05-26 23:46:42
Writing application            : mkvmerge v76.0 ('Celebration') 64-bit
Writing library                : libebml v1.4.4 + libmatroska v1.7.1

Video
ID                             : 1
Format                         : HEVC
Format/Info                    : High Efficiency Video Coding
Format profile                 : Main 10@L5@Main
Codec ID                       : V_MPEGH/ISO/HEVC
Duration                       : 3 min 59 s
Bit rate                       : 15.9 Mb/s
Width                          : 3 840 pixels
Height                         : 2 160 pixels
Display aspect ratio           : 16:9
Frame rate mode                : Constant
Frame rate                     : 25.000 FPS
Color space                    : YUV
Chroma subsampling             : 4:2:0
Bit depth                      : 10 bits
Bits/(Pixel*Frame)             : 0.076
Stream size                    : 453 MiB (87%)
Default                        : Yes
Forced                         : No
Color range                    : Limited
Color primaries                : BT.709
Transfer characteristics       : BT.709
Matrix coefficients            : BT.709

Audio #1
ID                             : 2
Format                         : PCM
Format settings                : Little / Signed
Codec ID                       : A_PCM/INT/LIT
Duration                       : 3 min 59 s
Bit rate mode                  : Constant
Bit rate                       : 2 117 kb/s
Channel(s)                     : 2 channels
Sampling rate                  : 44.1 kHz
Frame rate                     : 25.002 FPS (1764 SPF)
Bit depth                      : 24 bits
Stream size                    : 60.5 MiB (12%)
Title                          : Lossless 24-bit
Language                       : English
Default                        : Yes
Forced                         : No

Audio #2
ID                             : 3
Format                         : AAC LC
Format/Info                    : Advanced Audio Codec Low Complexity
Codec ID                       : A_AAC-2
Duration                       : 3 min 59 s
Bit rate                       : 317 kb/s
Channel(s)                     : 2 channels
Channel layout                 : L R
Sampling rate                  : 48.0 kHz
Frame rate                     : 46.875 FPS (1024 SPF)
Compression mode               : Lossy
Stream size                    : 9.06 MiB (2%)
Language                       : English
Default                        : No
Forced                         : No

Text
ID                             : 4
Format                         : UTF-8
Codec ID                       : S_TEXT/UTF8
Codec ID/Info                  : UTF-8 Plain Text
Duration                       : 3 min 8 s
Bit rate                       : 83 b/s
Frame rate                     : 0.117 FPS
Count of elements              : 22
Stream size                    : 1.93 KiB (0%)
Title                          : Lyrics
Language                       : English
Default                        : No
Forced                         : No
</pre>
</div></div>
</div><br>
<div class="bbCodeBlock bbCodeVfcHH HiddenContent">
<div class="attribution type">Hidden Content:</div>
<blockquote>You must reply before you can see the hidden data contained here.</blockquote>
</div>
<div class="messageTextEndMarker">&nbsp;</div>
</blockquote>
</article>]]></description>
                <author><![CDATA[ADHDerby]]></author>
                </item>

                
                <item>
                <title><![CDATA[【Requests】[REQ VID] - Puss in Boots: The Last Wish and Guardians of the Galaxy vol. 3 (both in 1080p)]]></title>
                <link><![CDATA[https://sharemania.us/threads/puss-in-boots-the-last-wish-and-guardians-of-the-galaxy-vol-3-both-in-1080p.221524/]]></link>
                <description><![CDATA[<article>
<blockquote class="messageText SelectQuoteContainer ugc baseHtml">
Im going on a really long road trip <br>
<br>
I would prefer 1080p <img src="styles/default/xenforo/smilies/grimace-48.png" class="mceSmilie" alt=":p" title="Stick Out Tongue    :p">
<div class="messageTextEndMarker">&nbsp;</div>
</blockquote>
</article>]]></description>
                <author><![CDATA[shroomer24]]></author>
                </item>

                
                <item>
                <title><![CDATA[【HD Live Performances】FEED - DJ Khaled - God Did - Grammy Awards S01E65 2023 - Main Show 1080i HDTV Backhaul DTS-HD MA 5.1 H.264-ALANiS]]></title>
                <link><![CDATA[https://sharemania.us/threads/dj-khaled-god-did-grammy-awards-s01e65-2023-main-show-1080i-hdtv-backhaul-dts-hd-ma-5-1-h-264-alanis.221509/]]></link>
                <description><![CDATA[<article>
<blockquote class="messageText SelectQuoteContainer ugc baseHtml">
<img src="https://images2.imgbox.com/5c/b9/wd6E0bx2_o.jpg" class="bbCodeImage LbImage" alt="[​IMG]" data-url="https://images2.imgbox.com/5c/b9/wd6E0bx2_o.jpg" style=""> <br>
<br>
<div class="bbCodeBlock bbCodeCode">
<div class="type">Code:</div>
<pre>General
Unique ID                      : 191739351669056607815506516611490614583 (0x903FA7E862E2A257ADA3D26AB1778D37)
Format                         : Matroska
Format version                 : Version 4
File size                      : 1.75 GiB
Duration                       : 8 min 40 s
Overall bit rate mode          : Variable
Overall bit rate               : 28.9 Mb/s
Encoded date                   : UTC 2023-05-26 22:07:19
Writing application            : mkvmerge v30.0.0 ('Interstellar') 64-bit
Writing library                : libebml v1.3.6 + libmatroska v1.4.9

Video
ID                             : 1
Format                         : AVC
Format/Info                    : Advanced Video Codec
Format profile                 : High@L4.1
Format settings                : CABAC / 4 Ref Frames
Format settings, CABAC         : Yes
Format settings, Reference fra : 4 frames
Format settings, GOP           : M=4, N=32
Codec ID                       : V_MPEG4/ISO/AVC
Duration                       : 8 min 39 s
Bit rate                       : 25.1 Mb/s
Width                          : 1 920 pixels
Height                         : 1 080 pixels
Display aspect ratio           : 16:9
Frame rate mode                : Variable
Frame rate                     : 59.940 FPS
Original frame rate            : 29.970 (30000/1001) FPS
Color space                    : YUV
Chroma subsampling             : 4:2:0
Bit depth                      : 8 bits
Scan type                      : Interlaced
Scan type, store method        : Separated fields
Scan order                     : Top Field First
Bits/(Pixel*Frame)             : 0.202
Stream size                    : 1.52 GiB (87%)
Default                        : Yes
Forced                         : No
Color range                    : Limited
Color primaries                : BT.709
Transfer characteristics       : BT.709
Matrix coefficients            : BT.709

Audio
ID                             : 2
Format                         : DTS XLL
Format/Info                    : Digital Theater Systems
Commercial name                : DTS-HD Master Audio
Codec ID                       : A_DTS
Duration                       : 8 min 39 s
Bit rate mode                  : Variable
Bit rate                       : 3 753 kb/s
Channel(s)                     : 6 channels
Channel layout                 : C L R Ls Rs LFE
Sampling rate                  : 48.0 kHz
Frame rate                     : 93.750 FPS (512 SPF)
Bit depth                      : 24 bits
Compression mode               : Lossless
Delay relative to video        : 102 ms
Stream size                    : 233 MiB (13%)
Language                       : English
Default                        : Yes
Forced                         : No

</pre>
</div>
<div class="bbCodeBlock bbCodeVfcHH HiddenContent">
<div class="attribution type">Hidden Content:</div>
<blockquote>You must either reply or click 'Like' to see the hidden information contained here.</blockquote>
</div><br>
<br>
<span style="color: rgb(191, 191, 191)">Cutted with:</span><br>
<b>MKVToolNix GUI<br>
<br>
<img src="styles/default/xenforo/smilies/super_man-48.png" class="mceSmilie" alt=":super:" title="Super Man    :super:"><img src="styles/default/xenforo/smilies/super_man-48.png" class="mceSmilie" alt=":super:" title="Super Man    :super:"><img src="styles/default/xenforo/smilies/super_man-48.png" class="mceSmilie" alt=":super:" title="Super Man    :super:"></b>
<div class="messageTextEndMarker">&nbsp;</div>
</blockquote>
</article>]]></description>
                <author><![CDATA[Dream66]]></author>
                </item>

                
                <item>
                <title><![CDATA[【Interviews / TV shows / Others】WEB-RiP - D.N.A Episode 3: Katy Perry (2020)]]></title>
                <link><![CDATA[https://sharemania.us/threads/d-n-a-episode-3-katy-perry-2020.221522/]]></link>
                <description><![CDATA[<article>
<blockquote class="messageText SelectQuoteContainer ugc baseHtml">
<img src="https://images2.imgbox.com/29/29/uCuRVHUN_o.jpg" class="bbCodeImage LbImage" alt="[​IMG]" data-url="https://images2.imgbox.com/29/29/uCuRVHUN_o.jpg" style=""> <img src="https://images2.imgbox.com/05/34/EnAegnue_o.jpg" class="bbCodeImage LbImage" alt="[​IMG]" data-url="https://images2.imgbox.com/05/34/EnAegnue_o.jpg" style=""> <img src="https://images2.imgbox.com/23/1e/VpSVqOnz_o.jpg" class="bbCodeImage LbImage" alt="[​IMG]" data-url="https://images2.imgbox.com/23/1e/VpSVqOnz_o.jpg" style=""> <img src="https://images2.imgbox.com/22/38/K20j6YNb_o.jpg" class="bbCodeImage LbImage" alt="[​IMG]" data-url="https://images2.imgbox.com/22/38/K20j6YNb_o.jpg" style=""> <img src="https://images2.imgbox.com/80/04/b4IBfXX7_o.jpg" class="bbCodeImage LbImage" alt="[​IMG]" data-url="https://images2.imgbox.com/80/04/b4IBfXX7_o.jpg" style=""> <br>
<br>
<br>
<br>
Pixeldrain &amp; Baidu<br>
<br>
<br>
<div class="bbCodeBlock bbCodeVfcHH HiddenContent">
<div class="attribution type">Hidden Content:</div>
<blockquote>You must reply before you can see the hidden data contained here.</blockquote>
</div>
<div class="messageTextEndMarker">&nbsp;</div>
</blockquote>
</article>]]></description>
                <author><![CDATA[drsouchan]]></author>
                </item>

                
                <item>
                <title><![CDATA[【Requests】[REQ VID] - Bee Gees - DVD Keppel Road: The Life And Music Of The Bee Gees (1997) - DVD EM FORMATO ISO VOB]]></title>
                <link><![CDATA[https://sharemania.us/threads/bee-gees-dvd-keppel-road-the-life-and-music-of-the-bee-gees-1997-dvd-em-formato-iso-vob.221519/]]></link>
                <description><![CDATA[<article>
<blockquote class="messageText SelectQuoteContainer ugc baseHtml">
alguém?
<div class="messageTextEndMarker">&nbsp;</div>
</blockquote>
</article>]]></description>
                <author><![CDATA[Robert Forever]]></author>
                </item>

                
                <item>
                <title><![CDATA[【Requests】[REQ AUD] - Robin Schulz - Rockstar Baby (feat. Mougleta)]]></title>
                <link><![CDATA[https://sharemania.us/threads/robin-schulz-rockstar-baby-feat-mougleta.221513/]]></link>
                <description><![CDATA[<article>
<blockquote class="messageText SelectQuoteContainer ugc baseHtml">
Does anyone have this song in FLAC? Thanks.
<div class="messageTextEndMarker">&nbsp;</div>
</blockquote>
</article>]]></description>
                <author><![CDATA[texas2]]></author>
                </item>

                
                <item>
                <title><![CDATA[【Requests】[REQ AUD] - Peter Fox, Charlotte De Witte, Mia Julia [QUBOZ] (2x Album, 1x Single)]]></title>
                <link><![CDATA[https://sharemania.us/threads/peter-fox-charlotte-de-witte-mia-julia-quboz-2x-album-1x-single.221520/]]></link>
                <description><![CDATA[<article>
<blockquote class="messageText SelectQuoteContainer ugc baseHtml">
Hi,<br>
I'm searching in lossless for (in 24Bit HiRes, if it's available):<br>
Charlotte de Witte - Overdrive EP<br>
<a href="https://www.qobuz.com/de-de/album/overdrive-ep-charlotte-de-witte/ej1wczon9po9a" target="_blank" class="externalLink" rel="nofollow">https://www.qobuz.com/de-de/album/overdrive-ep-charlotte-de-witte/ej1wczon9po9a</a><br>
<br>
Mia Julia - Rum Cola Korn Kabäns<br>
<a href="https://www.qobuz.com/de-de/album/rum-cola-korn-kabanes-malle-anja/j6eggpsjfp1bb" target="_blank" class="externalLink" rel="nofollow">https://www.qobuz.com/de-de/album/rum-cola-korn-kabanes-malle-anja/j6eggpsjfp1bb</a><br>
<br>
Peter Fox - Love Songs<br>
<a href="https://www.qobuz.com/de-de/album/love-songs-peter-fox/jxu2o0kwddwya" target="_blank" class="externalLink" rel="nofollow">https://www.qobuz.com/de-de/album/love-songs-peter-fox/jxu2o0kwddwya</a>
<div class="messageTextEndMarker">&nbsp;</div>
</blockquote>
</article>]]></description>
                <author><![CDATA[Mukke_15934]]></author>
                </item>

                </channel></rss>